<svg xmlns="http://www.w3.org/2000/svg" viewBox="0 0 1440 900" role="img" aria-label="Synthetic Codex Home Manager dashboard screenshot">
  <defs>
    <linearGradient id="bg" x1="0" x2="1" y1="0" y2="1">
      <stop offset="0" stop-color="#eef5ff"/>
      <stop offset="0.55" stop-color="#f8fbff"/>
      <stop offset="1" stop-color="#effaf6"/>
    </linearGradient>
    <filter id="shadow" x="-20%" y="-20%" width="140%" height="140%">
      <feDropShadow dx="0" dy="18" stdDeviation="24" flood-color="#1f2937" flood-opacity=".16"/>
    </filter>
  </defs>
  <rect width="1440" height="900" fill="url(#bg)"/>
  <rect x="64" y="70" width="1312" height="760" rx="28" fill="#ffffff" filter="url(#shadow)"/>
  <rect x="64" y="70" width="238" height="760" rx="28" fill="#f8fafc"/>
  <rect x="330" y="100" width="1018" height="62" rx="18" fill="#f9fbff" stroke="#d9e2f1"/>
  <text x="100" y="134" font-family="Inter, Arial, sans-serif" font-size="28" font-weight="800" fill="#111827">Codex Home Manager</text>
  <text x="100" y="172" font-family="Inter, Arial, sans-serif" font-size="15" fill="#667085">Local thread operations console</text>
  <g font-family="Inter, Arial, sans-serif" font-size="18" font-weight="700" fill="#334155">
    <rect x="94" y="236" width="178" height="48" rx="14" fill="#ffffff" stroke="#d9e2f1"/>
    <text x="132" y="267">Threads</text>
    <rect x="94" y="300" width="178" height="48" rx="14" fill="transparent"/>
    <text x="132" y="331">Resources</text>
    <rect x="94" y="364" width="178" height="48" rx="14" fill="transparent"/>
    <text x="132" y="395">Imports</text>
    <rect x="94" y="428" width="178" height="48" rx="14" fill="transparent"/>
    <text x="132" y="459">Agent API</text>
  </g>
  <g font-family="Inter, Arial, sans-serif">
    <text x="360" y="139" font-size="22" font-weight="800" fill="#111827">Synthetic dashboard preview</text>
    <rect x="1008" y="112" width="150" height="36" rx="18" fill="#e9f2ff" stroke="#c8dbff"/>
    <text x="1046" y="136" font-size="15" font-weight="800" fill="#2563eb">English</text>
    <rect x="1170" y="112" width="146" height="36" rx="18" fill="#eefaf2" stroke="#bde7cc"/>
    <text x="1204" y="136" font-size="15" font-weight="800" fill="#11804f">Private core</text>
  </g>
  <g font-family="Inter, Arial, sans-serif">
    <rect x="330" y="188" width="214" height="116" rx="18" fill="#ffffff" stroke="#d9e2f1"/>
    <text x="354" y="226" font-size="16" font-weight="800" fill="#667085">All threads</text>
    <text x="354" y="270" font-size="42" font-weight="900" fill="#111827">322</text>
    <rect x="564" y="188" width="214" height="116" rx="18" fill="#ffffff" stroke="#d9e2f1"/>
    <text x="588" y="226" font-size="16" font-weight="800" fill="#667085">Visible</text>
    <text x="588" y="270" font-size="42" font-weight="900" fill="#11804f">42</text>
    <rect x="798" y="188" width="214" height="116" rx="18" fill="#ffffff" stroke="#d9e2f1"/>
    <text x="822" y="226" font-size="16" font-weight="800" fill="#667085">Outside first page</text>
    <text x="822" y="270" font-size="42" font-weight="900" fill="#a16207">67</text>
    <rect x="1032" y="188" width="214" height="116" rx="18" fill="#ffffff" stroke="#d9e2f1"/>
    <text x="1056" y="226" font-size="16" font-weight="800" fill="#667085">Storage</text>
    <text x="1056" y="270" font-size="42" font-weight="900" fill="#4f46e5">4.0 GB</text>
  </g>
  <rect x="330" y="334" width="1018" height="430" rx="22" fill="#ffffff" stroke="#d9e2f1"/>
  <rect x="362" y="366" width="332" height="44" rx="14" fill="#f8fafc" stroke="#d9e2f1"/>
  <text x="392" y="394" font-family="Inter, Arial, sans-serif" font-size="16" fill="#667085">Search title, thread ID, project</text>
  <rect x="722" y="366" width="258" height="44" rx="14" fill="#eef2f7" stroke="#d9e2f1"/>
  <rect x="734" y="374" width="76" height="28" rx="10" fill="#ffffff"/>
  <text x="750" y="394" font-family="Inter, Arial, sans-serif" font-size="15" font-weight="800" fill="#111827">Main</text>
  <text x="828" y="394" font-family="Inter, Arial, sans-serif" font-size="15" font-weight="800" fill="#475569">All</text>
  <text x="892" y="394" font-family="Inter, Arial, sans-serif" font-size="15" font-weight="800" fill="#475569">Subagent</text>
  <g font-family="Inter, Arial, sans-serif" font-size="15" fill="#667085" font-weight="800">
    <text x="362" y="458">Status</text>
    <text x="520" y="458">Thread</text>
    <text x="836" y="458">Project</text>
    <text x="1010" y="458">Updated</text>
    <text x="1156" y="458">Action</text>
  </g>
  <g font-family="Inter, Arial, sans-serif">
    <rect x="362" y="482" width="956" height="72" rx="16" fill="#fbfdff" stroke="#e4ebf5"/>
    <rect x="386" y="506" width="92" height="30" rx="15" fill="#e9f9ef"/>
    <text x="412" y="527" font-size="15" font-weight="800" fill="#11804f">Visible</text>
    <text x="520" y="512" font-size="18" font-weight="850" fill="#111827">Research workspace cleanup</text>
    <text x="520" y="538" font-size="13" font-weight="800" fill="#7b8798">019e0000-0000-7000-a000-000000000001</text>
    <text x="836" y="525" font-size="16" fill="#334155">DemoProject</text>
    <text x="1010" y="525" font-size="16" fill="#667085">Today</text>
    <rect x="1156" y="500" width="112" height="38" rx="14" fill="#eef2ff" stroke="#c7d2fe"/>
    <text x="1184" y="525" font-size="15" font-weight="800" fill="#4f46e5">Hide</text>
    <rect x="362" y="572" width="956" height="72" rx="16" fill="#fbfdff" stroke="#e4ebf5"/>
    <rect x="386" y="596" width="124" height="30" rx="15" fill="#fff7ed"/>
    <text x="410" y="617" font-size="15" font-weight="800" fill="#a16207">First page</text>
    <text x="520" y="602" font-size="18" font-weight="850" fill="#111827">Import old home archive</text>
    <text x="520" y="628" font-size="13" font-weight="800" fill="#7b8798">019e0000-0000-7000-a000-000000000002</text>
    <text x="836" y="615" font-size="16" fill="#334155">ArchiveLab</text>
    <text x="1010" y="615" font-size="16" fill="#667085">Yesterday</text>
    <rect x="1156" y="590" width="112" height="38" rx="14" fill="#eefaf2" stroke="#bde7cc"/>
    <text x="1180" y="615" font-size="15" font-weight="800" fill="#11804f">Restore</text>
    <rect x="362" y="662" width="956" height="72" rx="16" fill="#fbfdff" stroke="#e4ebf5"/>
    <rect x="386" y="686" width="100" height="30" rx="15" fill="#eef2ff"/>
    <text x="408" y="707" font-size="15" font-weight="800" fill="#4f46e5">Agent</text>
    <text x="520" y="692" font-size="18" font-weight="850" fill="#111827">Evaluate local API contract</text>
    <text x="520" y="718" font-size="13" font-weight="800" fill="#7b8798">019e0000-0000-7000-a000-000000000003</text>
    <text x="836" y="705" font-size="16" fill="#334155">AgentOps</text>
    <text x="1010" y="705" font-size="16" fill="#667085">2 days</text>
    <rect x="1156" y="680" width="112" height="38" rx="14" fill="#fff7ed" stroke="#fed7aa"/>
    <text x="1186" y="705" font-size="15" font-weight="800" fill="#a16207">Logs</text>
  </g>
</svg>
